# xmcd
#
# Track frame offsets:
#	150
#	15430
#	30760
#	46950
#	75905
#	95130
#	117353
#	137958
#	162278
#	176965
#	194185
#
# Disc length: 2812 seconds
#
# Revision: 0
# Processed by: cddbd v1.5.1PL0 Copyright (c) Steve Scherf et al.
# Submitted via: dBpowerAMP V4.0
#
DISCID=8d0afa0b
DTITLE=Taz - Blow my Fuse
DYEAR=1900
DGENRE=
TTITLE0=Big Blues Show
TTITLE1=You Take My Blues Away
TTITLE2=Blow My Fuse
TTITLE3=Mean On Me
TTITLE4=China Doll
TTITLE5=Fool for Believin
TTITLE6=City Man, Country Life
TTITLE7=No Kisses
TTITLE8=Tazband Jam
TTITLE9=No One Knows
TTITLE10=No One Knows (inst)
EXTD=
EXTT0=
EXTT1=
EXTT2=
EXTT3=
EXTT4=
EXTT5=
EXTT6=
EXTT7=
EXTT8=
EXTT9=
EXTT10=
PLAYORDER=
